<svg xmlns="http://www.w3.org/2000/svg" style="display:none">
<symbol id="icon-antenna" viewBox="0 0 64 64"><path d="M61.5463 44.1952L44.6599 27.1851L46.534 17.9541C47.0176 18.1429 47.5318 18.2416 48.0508 18.2453H48.0636C50.4482 18.2735 52.404 16.3633 52.4323 13.9788C52.4606 11.5943 50.5503 9.6384 48.1658 9.61013C45.7812 9.582 43.8254 11.4921 43.7971 13.8767C43.7911 14.3869 43.8755 14.8941 44.0466 15.3749L34.1266 16.5856L17.9452 0.32C17.7467 0.117467 17.4757 0.00226667 17.1921 0C16.9121 0.00146667 16.644 0.112933 16.4455 0.3104L13.4204 3.3184C13.004 3.73493 13.004 4.41013 13.4204 4.82667L15.0481 6.47787C8.74201 18.0737 10.7903 32.4335 20.0871 41.8037C20.1724 41.8853 20.2713 41.9513 20.3793 41.9989C20.3121 42.3599 20.2771 42.7261 20.2748 43.0933V55.4667H7.47481C4.53081 55.4701 2.14495 57.856 2.14148 60.8V62.9333C2.14148 63.5224 2.61908 64 3.20815 64H52.2748C52.8639 64 53.3415 63.5224 53.3415 62.9333V60.8C53.338 57.856 50.9522 55.4701 48.0082 55.4667H35.2082V49.9829C37.2134 50.4035 39.2564 50.6179 41.3052 50.6229C46.2215 50.6176 51.0595 49.392 55.3852 47.056L57.0215 48.7019C57.22 48.9044 57.491 49.0196 57.7746 49.0219C58.0546 49.0204 58.3227 48.9089 58.5212 48.7115L61.5463 45.7035C61.9627 45.2869 61.9627 44.6117 61.5463 44.1952ZM46.5596 12.4661C47.395 11.6352 48.7458 11.6389 49.5766 12.4743C50.4075 13.3096 50.4038 14.6604 49.5684 15.4912C49.1686 15.8889 48.6275 16.1121 48.0635 16.112H48.0571C46.879 16.1059 45.9287 15.1459 45.9348 13.9676C45.9378 13.4036 46.1639 12.8639 46.5638 12.4661H46.5596ZM44.0487 19.4752L42.8519 25.3664L40.5009 23.0016L44.0487 19.4752ZM42.837 17.6715L38.997 21.4891L36.0263 18.5024L42.837 17.6715ZM48.0082 57.6C49.7755 57.6 51.2082 59.0327 51.2082 60.8V61.8667H4.27481V60.8C4.27481 59.0327 5.70748 57.6 7.47481 57.6H48.0082ZM33.0748 53.3333V55.4667H22.4081V53.3333H33.0748ZM22.4081 51.2V43.0933C22.4081 40.5056 24.8007 38.4 27.7415 38.4C30.6823 38.4 33.0748 40.5056 33.0748 43.0933V51.2H22.4081ZM35.2082 47.808V43.0933C35.2082 39.3291 31.8588 36.2667 27.7415 36.2667C25.0793 36.2259 22.59 37.5809 21.1793 39.8389C13.0639 31.2913 11.2364 18.5485 16.6221 8.06467L53.8258 45.4816C48.081 48.404 41.4955 49.2268 35.2082 47.808ZM57.7863 46.4405L56.2834 44.9291L17.1815 5.59147L15.6721 4.07893L17.1815 2.57493L33.0513 18.5344C33.0588 18.5344 33.0631 18.5483 33.0706 18.5536L59.2999 44.9365L57.7863 46.4405Z" />
<path d="M27.7511 40.5333H27.7415C25.9742 40.5306 24.5394 41.9612 24.5367 43.7285C24.534 45.4958 25.9646 46.9306 27.7319 46.9333H27.7415C29.5088 46.936 30.9436 45.5054 30.9463 43.7381C30.9489 41.9708 29.5184 40.536 27.7511 40.5333ZM28.4978 44.4896C28.297 44.6893 28.0248 44.801 27.7415 44.8C27.1524 44.7969 26.6774 44.3169 26.6804 43.7278C26.6819 43.4458 26.795 43.176 26.9948 42.977C27.1934 42.7796 27.4615 42.6681 27.7415 42.6666C28.3306 42.6697 28.8056 43.1497 28.8026 43.7388C28.8011 44.0208 28.688 44.2906 28.4882 44.4896H28.4978Z" />
</symbol>
<symbol id="icon-astronaut" viewBox="0 0 64 64"><path d="M63.9481 9.04812C63.8222 8.66299 63.4895 8.38149 63.0873 8.32274L59.2665 7.76698L57.5566 4.30455C57.1983 3.57492 56.0025 3.57492 55.6441 4.30455L53.9342 7.76698L50.1133 8.32286C49.7112 8.38149 49.3784 8.66212 49.2514 9.04825C49.1266 9.43438 49.23 9.85889 49.5213 10.1416L52.2872 12.8372L51.6344 16.6431C51.5662 17.0431 51.7304 17.4474 52.0579 17.6864C52.3897 17.9275 52.8227 17.9573 53.1822 17.7674L56.5999 15.97L60.0176 17.7674C60.1733 17.8495 60.3451 17.89 60.5147 17.89C60.7354 17.89 60.9563 17.8218 61.1419 17.6863C61.4704 17.4474 61.6347 17.043 61.5654 16.643L60.9127 12.8371L63.6786 10.1415C63.9684 9.85776 64.073 9.43425 63.9481 9.04812ZM59.0223 11.702C58.7717 11.9463 58.6564 12.3004 58.7162 12.6461L59.098 14.8743L57.097 13.8226C56.9413 13.7404 56.7706 13.6999 56.5999 13.6999C56.4292 13.6999 56.2596 13.7404 56.1027 13.8226L54.1016 14.8743L54.4835 12.6461C54.5432 12.3004 54.428 11.9474 54.1773 11.702L52.5571 10.1234L54.795 9.79801C55.1427 9.74788 55.4425 9.52926 55.5982 9.2145L56.5988 7.18785L57.5993 9.2145C57.755 9.52913 58.0548 9.74788 58.4025 9.79801L60.6404 10.1234L59.0223 11.702Z" />
<path d="M52.2669 41.0444H50.1335V43.1778H52.2669V41.0444Z" />
<path d="M52.2669 45.3112H50.1335V47.4446H52.2669V45.3112Z" />
<path d="M54.4003 43.1778H52.2669V45.3112H54.4003V43.1778Z" />
<path d="M50.1337 43.1778H48.0003V45.3112H50.1337V43.1778Z" />
<path d="M44.8002 52.778H42.6668V54.9113H44.8002V52.778Z" />
<path d="M44.8002 57.0446H42.6668V59.1781H44.8002V57.0446Z" />
<path d="M46.9336 54.9113H44.8002V57.0448H46.9336V54.9113Z" />
<path d="M42.6668 54.9113H40.5334V57.0448H42.6668V54.9113Z" />
<path d="M32 48.5113H29.8666V50.6447H32V48.5113Z" />
<path d="M32 52.778H29.8666V54.9113H32V52.778Z" />
<path d="M34.1334 50.6445H32V52.7779H34.1334V50.6445Z" />
<path d="M29.8666 50.6445H27.7332V52.7779H29.8666V50.6445Z" />
<path d="M11.733 12.2439H9.59964V14.3773H11.733V12.2439Z" />
<path d="M11.733 16.5108H9.59964V18.6442H11.733V16.5108Z" />
<path d="M13.8663 14.3774H11.7329V16.5108H13.8663V14.3774Z" />
<path d="M9.59964 14.3774H7.46624V16.5108H9.59964V14.3774Z" />
<path d="M49.4295 28.3189C48.8546 27.5434 48.0109 27.0443 47.053 26.9098C46.0909 26.7733 45.1415 27.026 44.3734 27.6138L41.8699 29.5327L41.8688 29.5338L38.0735 32.368L35.3577 31.2864C40.2004 29.1136 43.5851 24.2698 43.5851 18.6462C43.5851 11.0002 37.3396 4.77933 29.6627 4.77933C21.9858 4.77933 15.7405 11.0002 15.7405 18.6462C15.7405 21.4175 16.5693 23.9945 17.9805 26.163L12.4529 26.115C12.4497 26.115 12.4466 26.115 12.4433 26.115C12.4262 26.115 12.4124 26.1235 12.3964 26.1247C12.2908 26.1289 12.1873 26.1503 12.0861 26.1865C12.0604 26.1962 12.0338 26.2015 12.0093 26.2132C11.9966 26.2185 11.9837 26.2195 11.9709 26.2259L5.50471 29.4185C5.50359 29.4185 5.50259 29.4185 5.50259 29.4195L1.71578 31.2405C1.67415 31.2586 1.63153 31.2831 1.5899 31.3109C0.0805013 32.3156 -0.433632 34.289 0.393131 35.9018C0.833638 36.7594 1.58352 37.391 2.50516 37.68C2.86042 37.7908 3.22305 37.8453 3.58356 37.8453C4.16282 37.8453 4.7367 37.7035 5.26246 37.423L8.038 35.9467L12.5661 33.6085L15.2797 33.5925L4.39632 44.4237C4.39532 44.4248 4.39419 44.4248 4.39307 44.4258L1.71565 47.0925C1.08314 47.7219 0.735387 48.557 0.735387 49.4478C0.735387 50.3374 1.08314 51.1747 1.71565 51.8052C2.36529 52.4516 3.21968 52.7758 4.07406 52.7758C4.92958 52.7758 5.78284 52.4516 6.4346 51.8052L9.06289 49.1875L12.5446 46.588L14.3462 48.3821L10.8229 51.8904C10.8219 51.8916 10.8208 51.8916 10.8197 51.8926L8.14225 54.5592C7.50974 55.1886 7.16199 56.0237 7.16199 56.9145C7.16199 57.8041 7.50974 58.6414 8.14225 59.2719C8.79189 59.9183 9.6474 60.2426 10.5018 60.2426C11.3562 60.2426 12.2117 59.9183 12.8623 59.2719L15.5407 56.6052L19.8256 52.3386C19.8267 52.3374 19.8267 52.3364 19.8277 52.3353L21.847 50.3353L21.8395 50.3278C21.8522 50.315 21.8703 50.3106 21.8832 50.2969L32.2151 38.9805L39.1571 39.9682C39.2072 39.9757 39.2574 39.9789 39.3075 39.9789C39.4366 39.9789 39.5614 39.948 39.6819 39.9021C39.7171 39.8894 39.748 39.8722 39.7811 39.8552C39.8195 39.836 39.86 39.8254 39.8964 39.8009L46.3231 35.5342C46.3466 35.5182 46.3594 35.4925 46.3817 35.4755C46.4074 35.4553 46.4394 35.4468 46.4627 35.4243L49.0056 33.0424C50.3288 31.8026 50.5112 29.7717 49.4295 28.3189ZM4.26082 35.5403C3.91419 35.7259 3.52056 35.7632 3.14405 35.6438C2.77067 35.5275 2.46779 35.2725 2.29066 34.928C1.96853 34.3008 2.15516 33.537 2.71942 33.1243L5.34671 31.8602L5.97922 33.7088L6.24485 34.4853L4.26082 35.5403ZM11.2551 31.8849L8.1585 33.4849L7.64762 31.9915L7.28074 30.9184L11.3342 28.9172L11.2551 31.8849ZM41.4539 18.644C41.4539 20.4808 41.0155 22.2132 40.256 23.763L31.8933 19.9646C31.8057 18.8179 31.2106 17.8142 30.3167 17.189L33.2448 7.46837C38.0001 8.98102 41.4539 13.4173 41.4539 18.644ZM17.876 18.644C17.876 12.1746 23.1646 6.91049 29.665 6.91049C30.1706 6.91049 30.6655 6.95311 31.1551 7.01499L28.2911 16.5224C28.2527 16.5213 28.2164 16.5106 28.1769 16.5106C26.1118 16.5106 24.4318 18.1853 24.4318 20.2441C24.4318 22.3027 26.1118 23.9775 28.1769 23.9775C29.5657 23.9775 30.7657 23.2106 31.4132 22.0883L39.1381 25.5978C36.9887 28.4906 33.5487 30.3776 29.6648 30.3776C23.1646 30.3776 17.876 25.1135 17.876 18.644ZM29.7887 20.2441C29.7887 21.1262 29.0655 21.8441 28.1769 21.8441C27.2884 21.8441 26.5652 21.1262 26.5652 20.2441C26.5652 19.3619 27.2884 18.644 28.1769 18.644C29.0655 18.644 29.7887 19.3619 29.7887 20.2441ZM4.9297 50.2925C4.4572 50.7608 3.69231 50.7598 3.22093 50.2936C2.99367 50.0664 2.86892 49.7668 2.86892 49.4478C2.86892 49.1299 2.99367 48.8301 3.22093 48.6051L5.14508 46.6882L6.84748 48.3832L4.9297 50.2925ZM11.3574 57.7594C10.8849 58.2276 10.119 58.2288 9.64753 57.7605C9.42027 57.5333 9.29552 57.2336 9.29552 56.9146C9.29552 56.5967 9.42027 56.297 9.64753 56.072L11.5729 54.1541L12.3783 54.9552L13.2765 55.8491L11.3574 57.7594ZM18.3208 50.8217C18.3197 50.8227 18.3187 50.8227 18.3175 50.8238L14.7879 54.3438L13.9825 53.5427L13.0843 52.6488L16.6108 49.1384C16.6108 49.1384 16.6108 49.1384 16.6108 49.1374C16.6119 49.1363 16.6129 49.1363 16.614 49.1353C16.694 49.0553 16.7441 48.9593 16.7933 48.8644C16.8071 48.8366 16.8338 48.8131 16.8455 48.7844C16.8786 48.7023 16.8839 48.6138 16.8968 48.5272C16.9031 48.4781 16.9245 48.4324 16.9245 48.3821C16.9245 48.3106 16.8989 48.2414 16.884 48.1709C16.8713 48.1069 16.8713 48.0417 16.8466 47.98C16.8061 47.8797 16.7368 47.7912 16.6643 47.7047C16.644 47.6812 16.6365 47.6514 16.6141 47.629C16.6141 47.629 16.6141 47.629 16.613 47.629C16.6119 47.628 16.6119 47.6257 16.6109 47.6247L13.397 44.4247C13.3628 44.3906 13.3191 44.3767 13.2807 44.3479C13.2242 44.3042 13.1698 44.2637 13.1068 44.2327C13.0461 44.2028 12.9842 44.1847 12.9202 44.1676C12.852 44.1483 12.7858 44.1334 12.7143 44.1281C12.6492 44.1238 12.5884 44.1302 12.5234 44.1377C12.4519 44.1462 12.3848 44.1558 12.3154 44.1782C12.2482 44.1996 12.1886 44.2326 12.1267 44.2678C12.0872 44.2902 12.0424 44.2977 12.0051 44.3254L8.45838 46.973L6.65673 45.1788L11.4547 40.4065L20.1759 48.9838L18.3208 50.8217ZM31.9584 36.7883C31.9275 36.7841 31.8986 36.7958 31.8678 36.7937C31.7899 36.7894 31.7153 36.7948 31.6374 36.8076C31.5766 36.8182 31.519 36.8299 31.4614 36.8502C31.3931 36.8737 31.3312 36.9057 31.2682 36.9441C31.2085 36.9803 31.1541 37.0187 31.1019 37.0667C31.0762 37.0891 31.0454 37.0998 31.0219 37.1253L21.6253 47.4167L12.9692 38.9035L18.6354 33.2671C19.0525 32.8511 19.0547 32.1759 18.6387 31.7577C18.4285 31.5476 18.1523 31.4441 17.876 31.4452V31.4442L13.4386 31.4709L13.4941 28.2559L19.7022 28.3093C22.2324 30.8971 25.7609 32.511 29.665 32.511C30.5396 32.511 31.393 32.4204 32.2239 32.2656C32.3039 32.3296 32.3828 32.3948 32.4831 32.4353L37.3025 34.3553L37.6075 35.8721L37.9637 37.6427L31.9584 36.7883ZM40.0406 37.1446L39.4145 34.0288L42.3073 31.8687L43.0647 32.8735L44.2007 34.3818L40.0406 37.1446ZM47.5479 31.4826L45.8721 33.0528L44.0097 30.5802L45.6726 29.3056C45.983 29.0667 46.3745 28.9696 46.7585 29.0197C47.1446 29.0741 47.486 29.2757 47.7185 29.5882C48.1516 30.1717 48.078 30.9856 47.5479 31.4826Z" />
<path d="M27.2042 37.0881L22.9182 32.8214C22.5033 32.4065 21.8291 32.4065 21.4131 32.8214L17.1283 37.0881C16.9278 37.2897 16.8146 37.5606 16.8146 37.8443C16.8146 38.1281 16.9266 38.4001 17.1283 38.6006L21.4131 42.8673C21.6211 43.0742 21.8942 43.1777 22.1662 43.1777C22.4382 43.1777 22.7112 43.0742 22.9182 42.8673L27.2042 38.6006C27.4047 38.4001 27.5188 38.1281 27.5188 37.8443C27.5188 37.5606 27.4057 37.2886 27.2042 37.0881ZM22.1662 40.606L19.3928 37.8443L22.1662 35.0827L24.9406 37.8443L22.1662 40.606Z" />
<path d="M34.3285 10.1415L33.8133 12.2131C33.9552 12.2483 37.2886 13.1166 37.2886 16.5108H39.422C39.4219 12.4765 36.0907 10.5799 34.3285 10.1415Z" />
<path d="M39.422 18.644H37.2886V20.7775H39.422V18.644Z" />
</symbol>
<symbol id="icon-clock" viewBox="0 0 64 64"><path d="M62.5933 30.6025C62.5899 13.6978 48.8828 -0.00341734 31.9775 6.39362e-07C15.0728 0.00341861 1.37158 13.7109 1.375 30.6157C1.37793 43.9316 9.98877 55.7178 22.6738 59.7681C22.7949 59.8062 22.9209 59.8257 23.0474 59.8252C23.2886 59.8247 23.5249 59.7603 23.7324 59.6377C24.0024 59.478 24.2041 59.2241 24.2988 58.9248L32.0288 34.4248C34.1421 34.4141 35.8462 32.6919 35.835 30.5791C35.8242 28.4658 34.1025 26.7617 31.9893 26.7725C31.4209 26.7749 30.8599 26.9058 30.3491 27.1553L20.1372 16.9419C19.6304 16.4526 18.8232 16.4668 18.334 16.9731C17.8564 17.4678 17.8564 18.251 18.334 18.7456L28.5405 28.9639C27.7573 30.5625 28.2051 32.4922 29.6133 33.582L22.248 56.9277C7.69238 51.5659 0.239258 35.4199 5.60108 20.8643C10.9629 6.30859 27.1089 -1.14453 41.6646 4.21729C56.2202 9.5791 63.6733 25.7256 58.3115 40.2808C55.6919 47.3921 50.3096 53.1431 43.3872 56.2275L42.5913 52.479C42.4458 51.79 41.7686 51.3496 41.0796 51.4956C40.8623 51.542 40.6606 51.6441 40.4946 51.792L32.8208 58.6431C32.2944 59.1113 32.2476 59.9175 32.7163 60.4439C32.8687 60.6148 33.064 60.7417 33.2827 60.8115L43.0801 63.9385C43.7505 64.1538 44.4688 63.7852 44.6841 63.1143C44.7524 62.9024 44.7637 62.6768 44.7178 62.459L43.9356 58.7808C55.2642 54.0049 62.6196 42.8965 62.5933 30.6025ZM31.9844 29.3272C32.6885 29.3272 33.2598 29.8984 33.2598 30.6025C33.2598 31.3071 32.6885 31.8779 31.9844 31.8779C31.2798 31.8779 30.709 31.3071 30.709 30.6025C30.709 29.8984 31.2798 29.3272 31.9844 29.3272ZM36.1851 59.0552L40.5532 55.1587L41.7588 60.8394L36.1851 59.0552Z" />
<path d="M30.709 6.37012V8.9209C30.709 9.62549 31.2798 10.1963 31.9844 10.1963C32.6885 10.1963 33.2598 9.62549 33.2598 8.9209V6.37012C33.2598 5.66602 32.6885 5.09473 31.9844 5.09473C31.2798 5.09473 30.709 5.66602 30.709 6.37012Z" />
<path d="M7.75195 29.3271C7.04736 29.3271 6.47656 29.8984 6.47656 30.6025C6.47656 31.3071 7.04736 31.8779 7.75195 31.8779H10.3027C11.0073 31.8779 11.5781 31.3071 11.5781 30.6025C11.5781 29.8984 11.0073 29.3271 10.3027 29.3271H7.75195Z" />
<path d="M56.2162 31.8779C56.9208 31.8779 57.4916 31.3071 57.4916 30.6025C57.4916 29.8984 56.9208 29.3271 56.2162 29.3271H53.6655C52.9614 29.3271 52.3901 29.8984 52.3901 30.6025C52.3901 31.3071 52.9614 31.8779 53.6655 31.8779H56.2162Z" />
</symbol>
<symbol id="icon-comp" viewBox="0 0 264 112"><rect x="0.5" y="0.5" width="263" height="111" rx="3.5" stroke="#8E8F99" />
<g clip-path="url(#clip0_302815_4207)">
<path d="M129.851 53.9292H131.983V63.5242H129.851V53.9292Z" />
<path d="M138.38 58.1936H140.512V63.5242H138.38V58.1936Z" />
<path d="M121.322 61.392H123.454V63.5242H121.322V61.392Z" />
<path d="M114.926 60.3258H117.058V63.5241H114.926V60.3258Z" />
<path d="M103.198 80.5819H154.372C156.138 80.5819 157.57 79.1499 157.57 77.3836V73.1192C157.57 71.3529 156.138 69.9209 154.372 69.9209H153.305V43.3343L159.361 37.5977C160.767 38.2905 162.468 37.8699 163.388 36.6003C164.308 35.3312 164.179 33.5836 163.083 32.4634C161.986 31.3431 160.242 31.176 158.953 32.0678C157.664 32.96 157.206 34.6513 157.868 36.0719L153.305 40.3973V37.9376C153.305 36.1713 151.873 34.7393 150.107 34.7393H107.463C105.696 34.7393 104.264 36.1713 104.264 37.9376V69.9209H103.198C101.432 69.9209 100 71.3529 100 73.1192V77.3836C100 79.1499 101.432 80.5819 103.198 80.5819ZM160.768 33.6732C161.357 33.6732 161.834 34.1505 161.834 34.7393C161.834 35.328 161.357 35.8054 160.768 35.8054C160.179 35.8054 159.702 35.328 159.702 34.7393C159.702 34.1505 160.179 33.6732 160.768 33.6732ZM106.397 37.9376C106.397 37.3489 106.874 36.8715 107.463 36.8715H150.107C150.696 36.8715 151.173 37.3489 151.173 37.9376V42.4149L149.041 44.441V40.0698C149.041 39.4811 148.564 39.0037 147.975 39.0037H109.595C109.006 39.0037 108.529 39.4811 108.529 40.0698V66.7225C108.529 67.3113 109.006 67.7886 109.595 67.7886H147.975C148.564 67.7886 149.041 67.3113 149.041 66.7225V47.3738L151.173 45.3535V69.9209H106.397V37.9376ZM115.992 51.797C114.549 51.7929 113.283 52.7538 112.899 54.1442C112.515 55.5346 113.109 57.0094 114.35 57.7455C115.59 58.4815 117.17 58.2967 118.206 57.2936L121.912 59.1531C122.342 59.3686 122.865 59.2676 123.185 58.9079L131.062 50.0453L138.806 55.848C139.222 56.1593 139.802 56.126 140.178 55.7694L146.909 49.3941V65.6564H110.661V41.1359H146.909V46.4566L139.366 53.5997L131.557 47.7455C131.113 47.4134 130.489 47.4758 130.121 47.8897L122.135 56.8751L119.149 55.3821C119.171 55.2541 119.185 55.125 119.19 54.9953C119.19 53.2291 117.758 51.797 115.992 51.797ZM117.058 54.9953C117.058 55.5841 116.58 56.0615 115.992 56.0615C115.403 56.0615 114.926 55.5841 114.926 54.9953C114.926 54.4066 115.403 53.9292 115.992 53.9292C116.58 53.9292 117.058 54.4066 117.058 54.9953ZM123.454 72.0531H134.115V73.1192C134.115 73.7079 133.638 74.1853 133.049 74.1853H124.52C123.932 74.1853 123.454 73.7079 123.454 73.1192V72.0531ZM102.132 73.1192C102.132 72.5304 102.61 72.0531 103.198 72.0531H121.322V73.1192C121.322 74.8855 122.754 76.3175 124.52 76.3175H133.049C134.816 76.3175 136.248 74.8855 136.248 73.1192V72.0531H154.372C154.96 72.0531 155.438 72.5304 155.438 73.1192V77.3836C155.438 77.9724 154.96 78.4497 154.372 78.4497H103.198C102.61 78.4497 102.132 77.9724 102.132 77.3836V73.1192Z" />
</g>
<defs>
<clipPath id="clip0_302815_4207">
<rect width="64" height="64" transform="translate(100 24)" />
</clipPath>
</defs>
</symbol>
<symbol id="icon-facebook" viewBox="0 0 40 40"><path d="M40 20C40 25.5228 37.7614 30.5228 34.1421 34.1421C30.5228 37.7614 25.5228 40 20 40C14.4772 40 9.47715 37.7614 5.85786 34.1421C2.23858 30.5228 0 25.5228 0 20C0 14.4772 2.23858 9.47715 5.85786 5.85786C9.47715 2.23858 14.4772 0 20 0C25.5228 0 30.5228 2.23858 34.1421 5.85786C37.7614 9.47715 40 14.4772 40 20Z" />
<g clip-path="url(#clip0_1002937_159)">
<path d="M22.6647 14.6567H24.1254V12.1127C23.8734 12.078 23.0067 12 21.9974 12C19.8914 12 18.4487 13.3247 18.4487 15.7593V18H16.1247V20.844H18.4487V28H21.298V20.8447H23.528L23.882 18.0007H21.2974V16.0413C21.298 15.2193 21.5194 14.6567 22.6647 14.6567Z" />
</g>
<defs>
<clipPath id="clip0_1002937_159">
<rect width="16" height="16" transform="translate(12 12)" />
</clipPath>
</defs>
</symbol>
<symbol id="icon-instagram" viewBox="0 0 40 40"><path d="M40 20C40 25.5228 37.7614 30.5228 34.1421 34.1421C30.5228 37.7614 25.5228 40 20 40C14.4772 40 9.47715 37.7614 5.85786 34.1421C2.23858 30.5228 0 25.5228 0 20C0 14.4772 2.23858 9.47715 5.85786 5.85786C9.47715 2.23858 14.4772 0 20 0C25.5228 0 30.5228 2.23858 34.1421 5.85786C37.7614 9.47715 40 14.4772 40 20Z" />
<g clip-path="url(#clip0_1002937_147)">
<path d="M27.9843 16.704C27.9468 15.8539 27.8093 15.2694 27.6124 14.763C27.4092 14.2254 27.0967 13.7441 26.6872 13.344C26.2871 12.9377 25.8026 12.6219 25.2713 12.422C24.7619 12.225 24.1805 12.0875 23.3303 12.0501C22.4738 12.0094 22.2019 12 20.0296 12C17.8573 12 17.5854 12.0094 16.7321 12.0469C15.882 12.0844 15.2975 12.222 14.7912 12.4188C14.2535 12.6219 13.7722 12.9345 13.3721 13.344C12.9658 13.7441 12.6501 14.2286 12.45 14.7599C12.2531 15.2694 12.1156 15.8507 12.0781 16.7009C12.0375 17.5574 12.0281 17.8293 12.0281 20.0016C12.0281 22.1739 12.0375 22.4458 12.075 23.2991C12.1124 24.1492 12.25 24.7337 12.447 25.2401C12.6501 25.7777 12.9658 26.259 13.3721 26.6591C13.7722 27.0654 14.2567 27.3812 14.788 27.5812C15.2975 27.7781 15.8788 27.9156 16.7291 27.9531C17.5823 27.9907 17.8543 28 20.0266 28C22.1989 28 22.4708 27.9907 23.3241 27.9531C24.1742 27.9156 24.7587 27.7781 25.265 27.5812C26.3403 27.1654 27.1904 26.3153 27.6062 25.2401C27.803 24.7306 27.9406 24.1492 27.9781 23.2991C28.0156 22.4458 28.025 22.1739 28.025 20.0016C28.025 17.8293 28.0218 17.5574 27.9843 16.704ZM26.5435 23.2366C26.509 24.018 26.3778 24.4399 26.2684 24.7212C25.9995 25.4183 25.4463 25.9715 24.7493 26.2403C24.468 26.3497 24.043 26.481 23.2646 26.5153C22.4207 26.5529 22.1676 26.5622 20.0328 26.5622C17.898 26.5622 17.6417 26.5529 16.8009 26.5153C16.0195 26.481 15.5975 26.3497 15.3162 26.2403C14.9693 26.1121 14.6536 25.909 14.3973 25.6433C14.1316 25.3838 13.9285 25.0713 13.8003 24.7244C13.6909 24.4431 13.5596 24.018 13.5253 23.2397C13.4877 22.3958 13.4784 22.1426 13.4784 20.0078C13.4784 17.873 13.4877 17.6167 13.5253 16.776C13.5596 15.9946 13.6909 15.5726 13.8003 15.2913C13.9285 14.9443 14.1316 14.6287 14.4005 14.3723C14.6598 14.1066 14.9724 13.9034 15.3194 13.7754C15.6007 13.666 16.0258 13.5347 16.804 13.5003C17.6479 13.4628 17.9012 13.4534 20.0359 13.4534C22.1738 13.4534 22.4269 13.4628 23.2678 13.5003C24.0492 13.5347 24.4712 13.666 24.7525 13.7754C25.0993 13.9034 25.4151 14.1066 25.6714 14.3723C25.937 14.6317 26.1402 14.9443 26.2684 15.2913C26.3778 15.5726 26.509 15.9976 26.5435 16.776C26.581 17.6199 26.5904 17.873 26.5904 20.0078C26.5904 22.1426 26.581 22.3927 26.5435 23.2366Z" />
<path d="M20.0297 15.8914C17.7606 15.8914 15.9195 17.7323 15.9195 20.0015C15.9195 22.2708 17.7606 24.1117 20.0297 24.1117C22.2989 24.1117 24.1398 22.2708 24.1398 20.0015C24.1398 17.7323 22.2989 15.8914 20.0297 15.8914ZM20.0297 22.6677C18.5576 22.6677 17.3635 21.4737 17.3635 20.0015C17.3635 18.5293 18.5576 17.3354 20.0297 17.3354C21.5019 17.3354 22.6958 18.5293 22.6958 20.0015C22.6958 21.4737 21.5019 22.6677 20.0297 22.6677Z" />
<path d="M25.262 15.7289C25.262 16.2588 24.8324 16.6884 24.3024 16.6884C23.7725 16.6884 23.3428 16.2588 23.3428 15.7289C23.3428 15.1989 23.7725 14.7693 24.3024 14.7693C24.8324 14.7693 25.262 15.1989 25.262 15.7289Z" />
</g>
<defs>
<clipPath id="clip0_1002937_147">
<rect width="16" height="16" transform="translate(12 12)" />
</clipPath>
</defs>
</symbol>
<symbol id="icon-linkedin" viewBox="0 0 40 40"><path d="M40 20C40 25.5228 37.7614 30.5228 34.1421 34.1421C30.5228 37.7614 25.5228 40 20 40C14.4772 40 9.47715 37.7614 5.85786 34.1421C2.23858 30.5228 0 25.5228 0 20C0 14.4772 2.23858 9.47715 5.85786 5.85786C9.47715 2.23858 14.4772 0 20 0C25.5228 0 30.5228 2.23858 34.1421 5.85786C37.7614 9.47715 40 14.4772 40 20Z" />
<g clip-path="url(#clip0_1002937_163)">
<path d="M27.9961 28V27.9994H28.0001V22.1314C28.0001 19.2607 27.3821 17.0494 24.0261 17.0494C22.4128 17.0494 21.3301 17.9347 20.8881 18.774H20.8414V17.3174H17.6594V27.9994H20.9728V22.71C20.9728 21.3174 21.2368 19.9707 22.9614 19.9707C24.6608 19.9707 24.6861 21.56 24.6861 22.7994V28H27.9961Z" />
<path d="M12.264 17.318H15.5814V28H12.264V17.318Z" />
<path d="M13.9214 12C12.8607 12 12.0001 12.8607 12.0001 13.9213C12.0001 14.982 12.8607 15.8607 13.9214 15.8607C14.9821 15.8607 15.8427 14.982 15.8427 13.9213C15.8421 12.8607 14.9814 12 13.9214 12V12Z" />
</g>
<defs>
<clipPath id="clip0_1002937_163">
<rect width="16" height="16" transform="translate(12.0001 12)" />
</clipPath>
</defs>
</symbol>
<symbol id="icon-twitter" viewBox="0 0 40 40"><path d="M40 20C40 25.5228 37.7614 30.5228 34.1421 34.1421C30.5228 37.7614 25.5228 40 20 40C14.4772 40 9.47715 37.7614 5.85786 34.1421C2.23858 30.5228 0 25.5228 0 20C0 14.4772 2.23858 9.47715 5.85786 5.85786C9.47715 2.23858 14.4772 0 20 0C25.5228 0 30.5228 2.23858 34.1421 5.85786C37.7614 9.47715 40 14.4772 40 20Z" />
<path d="M28 15.039C27.405 15.3 26.771 15.473 26.11 15.557C26.79 15.151 27.309 14.513 27.553 13.744C26.919 14.122 26.219 14.389 25.473 14.538C24.871 13.897 24.013 13.5 23.077 13.5C21.261 13.5 19.799 14.974 19.799 16.781C19.799 17.041 19.821 17.291 19.875 17.529C17.148 17.396 14.735 16.089 13.114 14.098C12.831 14.589 12.665 15.151 12.665 15.756C12.665 16.892 13.25 17.899 14.122 18.482C13.595 18.472 13.078 18.319 12.64 18.078C12.64 18.088 12.64 18.101 12.64 18.114C12.64 19.708 13.777 21.032 15.268 21.337C15.001 21.41 14.71 21.445 14.408 21.445C14.198 21.445 13.986 21.433 13.787 21.389C14.212 22.688 15.418 23.643 16.852 23.674C15.736 24.547 14.319 25.073 12.785 25.073C12.516 25.073 12.258 25.061 12 25.028C13.453 25.965 15.175 26.5 17.032 26.5C23.068 26.5 26.368 21.5 26.368 17.166C26.368 17.021 26.363 16.881 26.356 16.742C27.007 16.28 27.554 15.703 28 15.039Z" />
</symbol>
</svg>
