<svg xmlns="http://www.w3.org/2000/svg" aria-hidden="true">

  <symbol id="icon-antenna" viewBox="0 0 64 64">
    <path d="M32 6c-1.1 0-2 .9-2 2v6.1c-9.1.9-16 8.5-16 17.9 0 1.1.9 2 2 2s2-.9 2-2c0-7.7 6.3-14 14-14s14 6.3 14 14c0 1.1.9 2 2 2s2-.9 2-2c0-9.4-6.9-17-16-17.9V8c0-1.1-.9-2-2-2z"/>
    <path d="M30 36v18h4V36z"/>
    <path d="M26 54h12v4H26z"/>
  </symbol>

  <symbol id="icon-clock" viewBox="0 0 64 64">
    <path d="M32 6C18.8 6 8 16.8 8 30s10.8 24 24 24 24-10.8 24-24S45.2 6 32 6zm0 44c-11 0-20-9-20-20S21 10 32 10s20 9 20 20-9 20-20 20z"/>
    <path d="M34 18h-4v14l10 6 2-3-8-5z"/>
  </symbol>

  <symbol id="icon-comp" viewBox="0 0 64 64">
    <path d="M8 12h48v32H8z"/>
    <path d="M20 48h24v4H20z"/>
  </symbol>

  <symbol id="icon-astronaut" viewBox="0 0 64 64">
    <path d="M32 6c-8.8 0-16 7.2-16 16v8c0 3.3 1.7 6.4 4.5 8.2L24 42v10h16V42l3.5-3.8C46.3 36.4 48 33.3 48 30v-8c0-8.8-7.2-16-16-16z"/>
  </symbol>

  <symbol id="icon-instagram" viewBox="0 0 24 24">
    <path d="M7 2h10c2.8 0 5 2.2 5 5v10c0 2.8-2.2 5-5 5H7c-2.8 0-5-2.2-5-5V7c0-2.8 2.2-5 5-5z"/>
    <circle cx="12" cy="12" r="3.2"/>
    <circle cx="17.5" cy="6.5" r="1"/>
  </symbol>

  <symbol id="icon-twitter" viewBox="0 0 24 24">
    <path d="M22 5.8c-.8.4-1.6.6-2.5.8.9-.6 1.6-1.4 1.9-2.4-.8.5-1.8.9-2.8 1.1C17.8 4.4 16.7 4 15.5 4c-2.4 0-4.2 2.2-3.7 4.5-3.3-.2-6.2-1.7-8.1-4.2-1 1.7-.5 3.9 1.3 5-.7 0-1.4-.2-2-.6 0 2 1.4 3.7 3.3 4.1-.6.2-1.2.2-1.8.1.5 1.6 2.1 2.8 4 2.8-1.8 1.4-4.1 2.1-6.4 1.8C3.9 19.5 6.5 20.3 9.3 20.3c6.8 0 10.7-5.8 10.4-11 .7-.5 1.4-1.2 1.9-1.9z"/>
  </symbol>

  <symbol id="icon-facebook" viewBox="0 0 24 24">
    <path d="M14 9h3V6h-3c-2.2 0-4 1.8-4 4v2H8v3h2v7h3v-7h3l1-3h-4v-2c0-.6.4-1 1-1z"/>
  </symbol>

  <symbol id="icon-linkedin" viewBox="0 0 24 24">
    <path d="M4 3a2 2 0 100 4 2 2 0 000-4zM3 8h2v13H3zM8 8h2v2c.5-1 1.7-2 3.5-2 3 0 4.5 2 4.5 5v8h-2v-7c0-2-.7-3-2.3-3-1.7 0-2.7 1.2-2.7 3v7H8z"/>
  </symbol>

</svg>
